<svg xmlns="http://www.w3.org/2000/svg" viewBox="0 140 560 480" width="560" height="480" role="img" aria-labelledby="t d" xmlns:c2pa="http://c2pa.org/manifest"><metadata><c2pa:manifest>AAAWgmp1bWIAAAAeanVtZGMycGEAEQAQgAAAqgA4m3EDYzJwYQAAABZcanVtYgAAAEdqdW1kYzJtYQARABCAAACqADibcQN1cm46YzJwYTozMjQ2NWRhYi01OTE3LTQyZWEtOTVjYi1lMDUzNjA2MThkODIAAAADl2p1bWIAAAApanVtZGMyYXMAEQAQgAAAqgA4m3EDYzJwYS5hc3NlcnRpb25zAAAAALxqdW1iAAAARGp1bWRjYm9yABEAEIAAAKoAOJtxE2MycGEuaW5ncmVkaWVudC52MwAAAAAYYzJzaAOLZqsTUqnbcegVbzB7QjwAAABwY2JvcqNpZGM6Zm9ybWF0bWltYWdlL3N2Zyt4bWxqaW5zdGFuY2VJRHgseG1wOmlpZDphYWRlZjVjOC1mN2M2LTQ4ZmYtOWUwZi0yYjJmNDZiZjEzMmZscmVsYXRpb25zaGlwaHBhcmVudE9mAAAB4mp1bWIAAABBanVtZGNib3IAEQAQgAAAqgA4m3ETYzJwYS5hY3Rpb25zLnYyAAAAABhjMnNogiqVC3S9ujPJDhSIzeXxWgAAAZljYm9yomdhY3Rpb25zgqJmYWN0aW9ua2MycGEub3BlbmVkanBhcmFtZXRlcnOha2luZ3JlZGllbnRzgaJjdXJseC1zZWxmI2p1bWJmPWMycGEuYXNzZXJ0aW9ucy9jMnBhLmluZ3JlZGllbnQudjNkaGFzaFggCMIq6cDfiYNIRSgmHcHygoUEv4vY9niYIsg/xQBB9EykZmFjdGlvbngdY29tLmFudGhyb3BpYy5jbGF1ZGUucHJvdmlkZWRqcGFyYW1ldGVyc6F4H2NvbS5hbnRocm9waWMub3JpZ2luLWNvbmZpZGVuY2VndW5rbm93bmtkZXNjcmlwdGlvbnhmQ2xhdWRlIHByb3ZpZGVkIHRoaXMgZmlsZSBhdCB0aGUgcmVxdWVzdCBvZiBhIHVzZXIgYW5kIG1heSBoYXZlIGNyZWF0ZWQgb3IgbW9kaWZpZWQgdGhlIGZpbGUgY29udGVudHMubXNvZnR3YXJlQWdlbnShZG5hbWVmQ2xhdWRlcmFsbEFjdGlvbnNJbmNsdWRlZPUAAADIanVtYgAAAEBqdW1kY2JvcgARABCAAACqADibcRNjMnBhLmhhc2guZGF0YQAAAAAYYzJzaPbqoCbgQ3GJ48RIZNoWP9AAAACAY2JvcqVjYWxnZnNoYTI1NmNwYWRNAAAAAAAAAAAAAAAAAGRoYXNoWCDAImk4B9ALLAGSK5R06O8U99EwRu7Sccp9Qla4JWn2O2RuYW1lbmp1bWJmIG1hbmlmZXN0amV4Y2x1c2lvbnOBomVzdGFydBi5Zmxlbmd0aBkeBAAAAj5qdW1iAAAAJ2p1bWRjMmNsABEAEIAAAKoAOJtxA2MycGEuY2xhaW0udjIAAAACD2Nib3KlY2FsZ2ZzaGEyNTZpc2lnbmF0dXJleE1zZWxmI2p1bWJmPS9jMnBhL3VybjpjMnBhOjMyNDY1ZGFiLTU5MTctNDJlYS05NWNiLWUwNTM2MDYxOGQ4Mi9jMnBhLnNpZ25hdHVyZWppbnN0YW5jZUlEeCx4bXA6aWlkOjM4NTcyOTVlLTkzNmYtNDM4NC1iZmU1LTJjZDBkZjFlNTA3YXJjcmVhdGVkX2Fzc2VydGlvbnODomN1cmx4LXNlbGYjanVtYmY9YzJwYS5hc3NlcnRpb25zL2MycGEuaW5ncmVkaWVudC52M2RoYXNoWCAIwirpwN+Jg0hFKCYdwfKChQS/i9j2eJgiyD/FAEH0TKJjdXJseCpzZWxmI2p1bWJmPWMycGEuYXNzZXJ0aW9ucy9jMnBhLmFjdGlvbnMudjJkaGFzaFggXeR7BhkOdHNb9uq/W8wV3QElCuWWvoh51jUD4xWxyCyiY3VybHgpc2VsZiNqdW1iZj1jMnBhLmFzc2VydGlvbnMvYzJwYS5oYXNoLmRhdGFkaGFzaFggHu9zObJd/B+lKm/TGsvRMRFToZeXUBEup21NzuSAT0J0Y2xhaW1fZ2VuZXJhdG9yX2luZm+jZG5hbWVvQW50aHJvcGljIEZpbGVzZ3ZlcnNpb25lMS4wLjBrc3BlY1ZlcnNpb25lMi40LjAAABA4anVtYgAAAChqdW1kYzJjcwARABCAAACqADibcQNjMnBhLnNpZ25hdHVyZQAAABAIY2JvctKEWQISogEmGCFZAgowggIGMIIBjaADAgECAhRA5aAK7sI50L64g/oGQgU9Z1UTADAKBggqhkjOPQQDAzBJMRcwFQYDVQQKEw5BbnRocm9waWMsIFBCQzEuMCwGA1UEAxMlQW50aHJvcGljIENvbnRlbnQgQ3JlZGVudGlhbHMgUm9vdCBDQTAeFw0yNjA4MDcxODQzNTZaFw0yODA4MDYxOTQzNTZaMEQxFzAVBgNVBAoTDkFudGhyb3BpYywgUEJDMSkwJwYDVQQDEyBBbnRocm9waWMgQ2xhdWRlIENvbnRlbnQgU2lnbmluZzBZMBMGByqGSM49AgEGCCqGSM49AwEHA0IABJh6CmvLUBgFFNU0vUKlOVtE6djd17L5SuwX0LemFisBM3dkd/3cyjxFA3Qo5S46fX0/ihY0VZ7mfb9KF703t5OjWDBWMA4GA1UdDwEB/wQEAwIHgDAVBgNVHSUEDjAMBgorBgEEAYPoXgIBMAwGA1UdEwEB/wQCMAAwHwYDVR0jBBgwFoAUzlHiBIFOZFsj+OPEz5o+nMHXXMIwCgYIKoZIzj0EAwMDZwAwZAIwMXMdFJ4BetLLVY7ORuE9noqbbAZOZn/aArXyTwFAZfKrPzxF2vPoJNf1+UCdg1XGAjBwX1zd9WGqYkqmL5SFqw1QySjr1zJfpJM9+1rdDwSPLMOPOjKuiXjoU/pUUeG9RwmhY3BhZFkNngAAAAAAAAAAAAAAAAAAAAAAAAAAAAAAAAAAAAAAAAAAAAAAAAAAAAAAAAAAAAAAAAAAAAAAAAAAAAAAAAAAAAAAAAAAAAAAAAAAAAAAAAAAAAAAAAAAAAAAAAAAAAAAAAAAAAAAAAAAAAAAAAAAAAAAAAAAAAAAAAAAAAAAAAAAAAAAAAAAAAAAAAAAAAAAAAAAAAAAAAAAAAAAAAAAAAAAAAAAAAAAAAAAAAAAAAAAAAAAAAAAAAAAAAAAAAAAAAAAAAAAAAAAAAAAAAAAAAAAAAAAAAAAAAAAAAAAAAAAAAAAAAAAAAAAAAAAAAAAAAAAAAAAAAAAAAAAAAAAAAAAAAAAAAAAAAAAAAAAAAAAAAAAAAAAAAAAAAAAAAAAAAAAAAAAAAAAAAAAAAAAAAAAAAAAAAAAAAAAAAAAAAAAAAAAAAAAAAAAAAAAAAAAAAAAAAAAAAAAAAAAAAAAAAAAAAAAAAAAAAAAAAAAAAAAAAAAAAAAAAAAAAAAAAAAAAAAAAAAAAAAAAAAAAAAAAAAAAAAAAAAAAAAAAAAAAAAAAAAAAAAAAAAAAAAAAAAAAAAAAAAAAAAAAAAAAAAAAAAAAAAAAAAAAAAAAAAAAAAAAAAAAAAAAAAAAAAAAAAAAAAAAAAAAAAAAAAAAAAAAAAAAAAAAAAAAAAAAAAAAAAAAAAAAAAAAAAAAAAAAAAAAAAAAAAAAAAAAAAAAAAAAAAAAAAAAAAAAAAAAAAAAAAAAAAAAAAAAAAAAAAAAAAAAAAAAAAAAAAAAAAAAAAAAAAAAAAAAAAAAAAAAAAAAAAAAAAAAAAAAAAAAAAAAAAAAAAAAAAAAAAAAAAAAAAAAAAAAAAAAAAAAAAAAAAAAAAAAAAAAAAAAAAAAAAAAAAAAAAAAAAAAAAAAAAAAAAAAAAAAAAAAAAAAAAAAAAAAAAAAAAAAAAAAAAAAAAAAAAAAAAAAAAAAAAAAAAAAAAAAAAAAAAAAAAAAAAAAAAAAAAAAAAAAAAAAAAAAAAAAAAAAAAAAAAAAAAAAAAAAAAAAAAAAAAAAAAAAAAAAAAAAAAAAAAAAAAAAAAAAAAAAAAAAAAAAAAAAAAAAAAAAAAAAAAAAAAAAAAAAAAAAAAAAAAAAAAAAAAAAAAAAAAAAAAAAAAAAAAAAAAAAAAAAAAAAAAAAAAAAAAAAAAAAAAAAAAAAAAAAAAAAAAAAAAAAAAAAAAAAAAAAAAAAAAAAAAAAAAAAAAAAAAAAAAAAAAAAAAAAAAAAAAAAAAAAAAAAAAAAAAAAAAAAAAAAAAAAAAAAAAAAAAAAAAAAAAAAAAAAAAAAAAAAAAAAAAAAAAAAAAAAAAAAAAAAAAAAAAAAAAAAAAAAAAAAAAAAAAAAAAAAAAAAAAAAAAAAAAAAAAAAAAAAAAAAAAAAAAAAAAAAAAAAAAAAAAAAAAAAAAAAAAAAAAAAAAAAAAAAAAAAAAAAAAAAAAAAAAAAAAAAAAAAAAAAAAAAAAAAAAAAAAAAAAAAAAAAAAAAAAAAAAAAAAAAAAAAAAAAAAAAAAAAAAAAAAAAAAAAAAAAAAAAAAAAAAAAAAAAAAAAAAAAAAAAAAAAAAAAAAAAAAAAAAAAAAAAAAAAAAAAAAAAAAAAAAAAAAAAAAAAAAAAAAAAAAAAAAAAAAAAAAAAAAAAAAAAAAAAAAAAAAAAAAAAAAAAAAAAAAAAAAAAAAAAAAAAAAAAAAAAAAAAAAAAAAAAAAAAAAAAAAAAAAAAAAAAAAAAAAAAAAAAAAAAAAAAAAAAAAAAAAAAAAAAAAAAAAAAAAAAAAAAAAAAAAAAAAAAAAAAAAAAAAAAAAAAAAAAAAAAAAAAAAAAAAAAAAAAAAAAAAAAAAAAAAAAAAAAAAAAAAAAAAAAAAAAAAAAAAAAAAAAAAAAAAAAAAAAAAAAAAAAAAAAAAAAAAAAAAAAAAAAAAAAAAAAAAAAAAAAAAAAAAAAAAAAAAAAAAAAAAAAAAAAAAAAAAAAAAAAAAAAAAAAAAAAAAAAAAAAAAAAAAAAAAAAAAAAAAAAAAAAAAAAAAAAAAAAAAAAAAAAAAAAAAAAAAAAAAAAAAAAAAAAAAAAAAAAAAAAAAAAAAAAAAAAAAAAAAAAAAAAAAAAAAAAAAAAAAAAAAAAAAAAAAAAAAAAAAAAAAAAAAAAAAAAAAAAAAAAAAAAAAAAAAAAAAAAAAAAAAAAAAAAAAAAAAAAAAAAAAAAAAAAAAAAAAAAAAAAAAAAAAAAAAAAAAAAAAAAAAAAAAAAAAAAAAAAAAAAAAAAAAAAAAAAAAAAAAAAAAAAAAAAAAAAAAAAAAAAAAAAAAAAAAAAAAAAAAAAAAAAAAAAAAAAAAAAAAAAAAAAAAAAAAAAAAAAAAAAAAAAAAAAAAAAAAAAAAAAAAAAAAAAAAAAAAAAAAAAAAAAAAAAAAAAAAAAAAAAAAAAAAAAAAAAAAAAAAAAAAAAAAAAAAAAAAAAAAAAAAAAAAAAAAAAAAAAAAAAAAAAAAAAAAAAAAAAAAAAAAAAAAAAAAAAAAAAAAAAAAAAAAAAAAAAAAAAAAAAAAAAAAAAAAAAAAAAAAAAAAAAAAAAAAAAAAAAAAAAAAAAAAAAAAAAAAAAAAAAAAAAAAAAAAAAAAAAAAAAAAAAAAAAAAAAAAAAAAAAAAAAAAAAAAAAAAAAAAAAAAAAAAAAAAAAAAAAAAAAAAAAAAAAAAAAAAAAAAAAAAAAAAAAAAAAAAAAAAAAAAAAAAAAAAAAAAAAAAAAAAAAAAAAAAAAAAAAAAAAAAAAAAAAAAAAAAAAAAAAAAAAAAAAAAAAAAAAAAAAAAAAAAAAAAAAAAAAAAAAAAAAAAAAAAAAAAAAAAAAAAAAAAAAAAAAAAAAAAAAAAAAAAAAAAAAAAAAAAAAAAAAAAAAAAAAAAAAAAAAAAAAAAAAAAAAAAAAAAAAAAAAAAAAAAAAAAAAAAAAAAAAAAAAAAAAAAAAAAAAAAAAAAAAAAAAAAAAAAAAAAAAAAAAAAAAAAAAAAAAAAAAAAAAAAAAAAAAAAAAAAAAAAAAAAAAAAAAAAAAAAAAAAAAAAAAAAAAAAAAAAAAAAAAAAAAAAAAAAAAAAAAAAAAAAAAAAAAAAAAAAAAAAAAAAAAAAAAAAAAAAAAAAAAAAAAAAAAAAAAAAAAAAAAAAAAAAAAAAAAAAAAAAAAAAAAAAAAAAAAAAAAAAAAAAAAAAAAAAAAAAAAAAAAAAAAAAAAAAAAAAAAAAAAAAAAAAAAAAAAAAAAAAAAAAAAAAAAAAAAAAAAAAAAAAAAAAAAAAAAAAAAAAAAAAAAAAAAAAAAAAAAAAAAAAAAAAAAAAAAAAAAAAAAAAAAAAAAAAAAAAAAAAAAAAAAAAAAAAAAAAAAAAAAAAAAAAAAAAAAAAAAAAAAAAAAAAAAAAAAAAAAAAAAAAAAAAAAAAAAAAAAAAAAAAAAAAAAAAAAAAAAAAAAAAAAAAAAAAAAAAAAAAAAAAAAAAAAAAAAAAAAAAAAAAAAAAAAAAAAAAAAAAAAAAAAAAAAAAAAAAAAAAAAAAAAAAAAAAAAAAAAAAAAAAAAAAAAAAAAAAAAAAAAAAAAAAAAAAAAAAAAAAAAAAAAAAAAAAAAAAAAAAAAAAAAAAAAAAAAAAAAAAAAAAAAAAAAAAAAAAAAAAAAAAAAAAAAAAAAAAAAAAAAAAAAAAAAAAAAAAAAAAAAAAAAAAAAAAAAAAAAAAAAAAAAAAAAAAAAAAAAAAAAAAAAAAAAAAAAAAAAAAAAAAAAAAAAAAAAAAAAAAAAAAAAAAAAAAAAAAAAAAAAAAAAAAAAAAAAAAAAAAAAAAAAAAAAAAAAAAAAAAAAAAAAAAAAAAAAAAAAAAAAAAAAAAAAAAAAAAAAAAAAAAAAAAAAAAAAAAAAAAAAAAAAAAAAAAAAAAAAAAAAAAAAAAAAAAAAAAAAAAAAAAAAAAAAAAAAAAAAAAAAAAAAAAAAAAAAAAAAAAAAAAAAAAAAAAAAAAAAAAAAAAAAAAAAAAAAAAAAAAAAAAAAAAAAAAAAAAAAAAAAAAAAAAAAAAAAAAAAAAAAAAAAAAAAAAAAAAAAAAAAAAAAAAAAAAAAAAAAAAAAAAAAAAAAAAAAAAAAAAAAAAAAAAAAAAAAAAAAAAAAAAAAAAAAAAAAAAAAAAAAAAAAAAAAAAAAAAAAAAAAAAAAAAAAAAAAAAAAAAAAAAAAAAAAAAAAAAAAAAAAAAAAAAAAAAAAAAAAAAAAAAAAAAAAAAAAAAAAAAAAAAAAAAAAAAAAAAAAAAAAAAAAAAAAAAAAAAAAAAAAAAAAAAAAAAAAAAAAAAAAAAAAAAAAAAAAAAAAAAAAAAAAAAAAAAAAAAAAAAAAAAAAAAAAAAAAAAAAAAAAAAAAAAAAAAAAAAAAAAAAAAAAAAAAAAAAAAAAAAAAAAAAAAAAAAAAAAAAAAAAAAAAAAAAAAAAAAAAAAAAAAAAAAAAAAAAAAAAAAAAAAAAAAAAAAAAAAAAAAAAAAAAAAAAAAAAAAAAAAAAAAAAAAAAAAAAAAAAAAAAAAAAAAAAAAAAAAAAAAAAAAAAAAAAAAAAAAAAAAAAAAAAAAAAAAAAAAAAAAAAAAAAAAAAAAAAAAAAAAAAAAAAAAAAAAAAAAAPZYQK+dy+e4i1zonqcVA+2iknIvLiqL/MXcmF51AK3IcKtx1g5uJeyJH5Pc43EbSKK5NCaNlzXOPrIkog5YwzJU6o4=</c2pa:manifest></metadata>
  <title id="t">Aarambh support executive</title>
  <desc id="d">A friendly support executive in a green polo shirt sits at a desk with a laptop, a stack of files and a small plant, ready to help.</desc>
  <defs>
    <linearGradient id="polo" x1="0" y1="0" x2="0" y2="1">
      <stop offset="0" stop-color="#1B5B43"/>
      <stop offset="1" stop-color="#134230"/>
    </linearGradient>
    <linearGradient id="deskTop" x1="0" y1="0" x2="0" y2="1">
      <stop offset="0" stop-color="#E8C9A2"/>
      <stop offset="1" stop-color="#DDB68B"/>
    </linearGradient>
    <linearGradient id="lap" x1="0" y1="0" x2="1" y2="1">
      <stop offset="0" stop-color="#D5DAE1"/>
      <stop offset="1" stop-color="#AEB7C3"/>
    </linearGradient>
    <linearGradient id="gold" x1="0" y1="0" x2="1" y2="1">
      <stop offset="0" stop-color="#E8BC66"/>
      <stop offset="1" stop-color="#BE8A3F"/>
    </linearGradient>
    <filter id="soft" x="-20%" y="-20%" width="140%" height="150%">
      <feDropShadow dx="0" dy="6" stdDeviation="6" flood-color="#0b2a1e" flood-opacity="0.22"/>
    </filter>
    <clipPath id="idClip"><rect x="252" y="428" width="58" height="74" rx="7"/></clipPath>
  </defs>

  <!-- plant (behind laptop, right) -->
  <g transform="translate(-16 0)">
    <path d="M512 470 C500 430 498 400 506 372" stroke="#2A7B55" stroke-width="5" fill="none" stroke-linecap="round"/>
    <path d="M520 470 C528 436 540 410 552 392" stroke="#2A7B55" stroke-width="5" fill="none" stroke-linecap="round"/>
    <path d="M512 470 C508 440 480 428 470 410" stroke="#2A7B55" stroke-width="5" fill="none" stroke-linecap="round"/>
    <ellipse cx="505" cy="366" rx="17" ry="34" fill="#3E9E6B" transform="rotate(-8 505 366)"/>
    <ellipse cx="552" cy="388" rx="14" ry="30" fill="#2F8A63" transform="rotate(28 552 388)"/>
    <ellipse cx="468" cy="404" rx="14" ry="30" fill="#3E9E6B" transform="rotate(-38 468 404)"/>
    <ellipse cx="528" cy="420" rx="12" ry="26" fill="#52B07E" transform="rotate(14 528 420)"/>
    <path d="M505 336 L505 392" stroke="#2A7B55" stroke-width="2" opacity=".5"/>
  </g>

  <!-- torso / polo -->
  <path d="M104 528 C106 452 132 410 196 392 L242 380 L318 380 L364 392 C428 410 454 452 456 528 Z" fill="url(#polo)"/>
  <!-- shoulder highlight -->
  <path d="M150 424 C170 406 196 398 222 392" stroke="#2C7A5B" stroke-width="5" fill="none" stroke-linecap="round" opacity=".55"/>

  <!-- neck -->
  <path d="M254 322 L254 384 C254 398 306 398 306 384 L306 322 Z" fill="#B67B53"/>
  <!-- neck shadow under chin -->
  <path d="M254 340 C268 356 292 356 306 340 L306 322 L254 322 Z" fill="#A66D47" opacity=".55"/>

  <!-- V neckline skin -->
  <path d="M250 378 L280 420 L310 378 C300 388 260 388 250 378 Z" fill="#B67B53"/>

  <!-- collar -->
  <path d="M232 384 L258 372 L282 418 L248 404 Z" fill="#0E3426"/>
  <path d="M328 384 L302 372 L278 418 L312 404 Z" fill="#0E3426"/>
  <path d="M280 418 L280 430" stroke="#0E3426" stroke-width="3" stroke-linecap="round"/>

  <!-- lanyard + ID card -->
  <path d="M254 376 L271 428" stroke="url(#gold)" stroke-width="8" stroke-linecap="round" fill="none"/>
  <path d="M306 376 L289 428" stroke="url(#gold)" stroke-width="8" stroke-linecap="round" fill="none"/>
  <rect x="272" y="422" width="16" height="10" rx="3" fill="#8A8F98"/>
  <g filter="url(#soft)">
    <rect x="252" y="428" width="58" height="74" rx="7" fill="#FFFFFF"/>
  </g>
  <g clip-path="url(#idClip)">
    <rect x="252" y="428" width="58" height="20" fill="#1F6B4F"/>
    <path d="M262 438 L270 432 L278 438" stroke="#E8BC66" stroke-width="3" fill="none" stroke-linecap="round" stroke-linejoin="round"/>
    <circle cx="281" cy="466" r="10" fill="#C98F66"/>
    <path d="M264 498 C264 482 298 482 298 498 Z" fill="#1F6B4F"/>
    <rect x="262" y="490" width="38" height="3" rx="1.5" fill="#D6DDD3"/>
  </g>

  <!-- polo logo patch -->
  <g transform="translate(338 410) scale(.9)">
    <path d="M0 22 L11 0 L22 22 L16 22 L11 11 L6 22 Z" fill="url(#gold)"/>
  </g>

  <!-- ears -->
  <ellipse cx="222" cy="272" rx="10" ry="15" fill="#C08560"/>
  <ellipse cx="338" cy="272" rx="10" ry="15" fill="#C08560"/>
  <ellipse cx="223" cy="274" rx="4.5" ry="8" fill="#AE7550" opacity=".7"/>
  <ellipse cx="337" cy="274" rx="4.5" ry="8" fill="#AE7550" opacity=".7"/>

  <!-- head -->
  <path d="M222 262 C222 214 248 196 280 196 C312 196 338 214 338 262 C338 306 316 338 280 338 C244 338 222 306 222 262 Z" fill="#C98F66"/>
  <!-- cheek light -->
  <path d="M232 292 C240 320 262 334 280 334 C262 322 248 306 244 286 Z" fill="#B67B53" opacity=".35"/>

  <!-- hair -->
  <path d="M220 270 C206 206 240 168 284 168 C334 168 362 208 340 272 C336 242 322 224 300 218 C276 212 244 222 228 252 Z" fill="#1C1717"/>
  <path d="M236 206 C256 186 286 182 312 190" stroke="#4A4040" stroke-width="5" fill="none" stroke-linecap="round" opacity=".8"/>
  <path d="M300 218 C320 224 334 238 338 262" stroke="#1C1717" stroke-width="10" fill="none" stroke-linecap="round"/>

  <!-- eyebrows -->
  <path d="M244 252 Q258 243 273 250" stroke="#1C1717" stroke-width="4.5" fill="none" stroke-linecap="round"/>
  <path d="M287 250 Q302 243 316 252" stroke="#1C1717" stroke-width="4.5" fill="none" stroke-linecap="round"/>
  <!-- eyes -->
  <ellipse cx="259" cy="270" rx="5.6" ry="6.6" fill="#1C1717"/>
  <ellipse cx="301" cy="270" rx="5.6" ry="6.6" fill="#1C1717"/>
  <circle cx="261" cy="267.5" r="1.9" fill="#FFFFFF"/>
  <circle cx="303" cy="267.5" r="1.9" fill="#FFFFFF"/>
  <!-- nose -->
  <path d="M280 276 C274 292 276 298 284 298" stroke="#A66D47" stroke-width="3.2" fill="none" stroke-linecap="round"/>
  <!-- cheeks -->
  <circle cx="244" cy="296" r="9" fill="#E07B6A" opacity=".22"/>
  <circle cx="316" cy="296" r="9" fill="#E07B6A" opacity=".22"/>
  <!-- smile -->
  <path d="M256 304 Q280 334 304 304 Q280 312 256 304 Z" fill="#FFFFFF" stroke="#8E4A3A" stroke-width="2.6" stroke-linejoin="round"/>
  <path d="M262 307 Q280 316 298 307" stroke="#D9DDE0" stroke-width="1.6" fill="none"/>

  <!-- desk -->
  <rect x="0" y="504" width="560" height="64" fill="url(#deskTop)"/>
  <rect x="0" y="504" width="560" height="5" fill="#F2DABB" opacity=".9"/>
  <rect x="0" y="568" width="560" height="52" fill="#C99A6B"/>
  <rect x="0" y="568" width="560" height="4" fill="#B5855A" opacity=".7"/>

  <!-- stack of files / books (left) -->
  <g filter="url(#soft)">
    <g transform="rotate(-2 66 540)">
      <rect x="10" y="526" width="118" height="26" rx="4" fill="#1F6B4F"/>
      <rect x="18" y="534" width="44" height="3" rx="1.5" fill="#E8BC66"/>
    </g>
    <g transform="rotate(1.5 70 514)">
      <rect x="16" y="500" width="110" height="26" rx="4" fill="#BE8A3F"/>
      <rect x="24" y="508" width="40" height="3" rx="1.5" fill="#FFF2C5"/>
    </g>
    <g transform="rotate(-1.5 68 488)">
      <rect x="12" y="474" width="114" height="26" rx="4" fill="#2F6F9F"/>
      <rect x="20" y="482" width="46" height="3" rx="1.5" fill="#DCEAF5"/>
    </g>
  </g>

  <!-- forearms + clasped hands -->
  <path d="M138 470 C124 494 128 522 152 536 C176 550 214 548 244 542 L238 516 C214 520 192 518 180 504 C174 492 178 478 184 468 Z" fill="#C98F66"/>
  <path d="M138 470 C124 494 128 522 152 536" stroke="#B67B53" stroke-width="3" fill="none" opacity=".5"/>
  <path d="M424 470 C436 494 432 520 410 532 C396 540 372 544 352 542 L350 518 C372 518 388 512 396 500 C402 490 398 478 392 468 Z" fill="#C98F66"/>
  <!-- sleeves -->
  <path d="M110 480 C110 440 140 412 180 408 C204 406 208 440 202 470 C199 490 190 504 176 508 L126 508 C114 502 110 492 110 480 Z" fill="#134230"/>
  <path d="M118 470 C122 446 144 424 172 418" stroke="#2C7A5B" stroke-width="4" fill="none" stroke-linecap="round" opacity=".5"/>
  <path d="M450 480 C450 440 420 412 380 408 C356 406 352 440 358 470 C361 490 370 504 384 508 L434 508 C446 502 450 492 450 480 Z" fill="#134230"/>
  <!-- hands clasped -->
  <g filter="url(#soft)">
    <path d="M232 536 C232 516 252 508 282 508 C312 508 334 516 334 536 C334 552 312 558 284 558 C254 558 232 552 232 536 Z" fill="#D29B72"/>
    <path d="M246 546 C262 552 306 552 322 546" stroke="#B67B53" stroke-width="2.4" fill="none" stroke-linecap="round" opacity=".6"/>
    <circle cx="256" cy="516" r="9" fill="#D9A47C"/>
    <circle cx="274" cy="511" r="9.5" fill="#D9A47C"/>
    <circle cx="293" cy="511" r="9.5" fill="#D9A47C"/>
    <circle cx="311" cy="516" r="9" fill="#D9A47C"/>
    <path d="M265 520 L265 534 M284 518 L284 534 M302 520 L302 534" stroke="#B67B53" stroke-width="2.2" stroke-linecap="round" opacity=".55"/>
    <path d="M318 520 C336 520 344 530 338 540 C332 548 320 544 316 536 Z" fill="#CB9068"/>
    <path d="M232 526 C220 526 214 536 220 544 C226 550 236 546 238 538 Z" fill="#C98F66"/>
  </g>

  <!-- laptop (back faces viewer) -->
  <g filter="url(#soft)">
    <rect x="352" y="440" width="170" height="104" rx="9" fill="url(#lap)"/>
    <rect x="352" y="440" width="170" height="104" rx="9" fill="none" stroke="#98A1AE" stroke-width="2"/>
    <path d="M437 474 L450 500 L437 494 L424 500 Z" fill="url(#gold)"/>
    <path d="M437 474 L424 500 L418 500 L437 462 L456 500 L450 500 Z" fill="#1F6B4F"/>
    <path d="M334 546 L540 546 L530 560 L344 560 Z" fill="#9AA3B0"/>
    <rect x="410" y="550" width="54" height="4" rx="2" fill="#7E8795"/>
  </g>

  <!-- name plate -->
  <g filter="url(#soft)">
    <path d="M196 572 L370 572 L378 604 L188 604 Z" fill="#FFFFFF" opacity=".92"/>
    <path d="M196 572 L370 572 L378 604 L188 604 Z" fill="none" stroke="#C7D6C2" stroke-width="2"/>
    <path d="M222 596 L234 576 L246 596 L240 596 L234 586 L228 596 Z" fill="url(#gold)"/>
    <rect x="258" y="580" width="82" height="6" rx="3" fill="#1F6B4F"/>
    <rect x="258" y="592" width="62" height="4" rx="2" fill="#9DB8A4"/>
  </g>
</svg>
